<mxfile host="app.diagrams.net" modified="2021-03-03T10:18:42.761Z" agent="5.0 (Windows NT 10.0; Win64; x64) AppleWebKit/537.36 (KHTML, like Gecko) Chrome/88.0.4324.182 Safari/537.36 Edg/88.0.705.74" etag="ggxBOFK3gJpLkVxgwT4S" version="14.4.3" type="github">
  <diagram id="uQmLdXCytdXxHZiYrU_f" name="Page-1">
    <mxGraphModel dx="1278" dy="580" grid="1" gridSize="10" guides="1" tooltips="1" connect="1" arrows="1" fold="1" page="1" pageScale="1" pageWidth="827" pageHeight="1169" math="0" shadow="0">
      <root>
        <mxCell id="0" />
        <mxCell id="1" parent="0" />
        <mxCell id="3dHDWGeiE3NFk8Ts6EiU-2" value="JHFarm" style="swimlane;fontStyle=1;align=center;verticalAlign=top;childLayout=stackLayout;horizontal=1;startSize=26;horizontalStack=0;resizeParent=1;resizeParentMax=0;resizeLast=0;collapsible=1;marginBottom=0;" parent="1" vertex="1">
          <mxGeometry y="310" width="210" height="140" as="geometry" />
        </mxCell>
        <mxCell id="3dHDWGeiE3NFk8Ts6EiU-3" value="- Owner: string; {+ get, -set)&#xa;- Animals: List&lt;Animals&gt;{+get }" style="text;strokeColor=none;fillColor=none;align=left;verticalAlign=top;spacingLeft=4;spacingRight=4;overflow=hidden;rotatable=0;points=[[0,0.5],[1,0.5]];portConstraint=eastwest;" parent="3dHDWGeiE3NFk8Ts6EiU-2" vertex="1">
          <mxGeometry y="26" width="210" height="54" as="geometry" />
        </mxCell>
        <mxCell id="3dHDWGeiE3NFk8Ts6EiU-4" value="" style="line;strokeWidth=1;fillColor=none;align=left;verticalAlign=middle;spacingTop=-1;spacingLeft=3;spacingRight=3;rotatable=0;labelPosition=right;points=[];portConstraint=eastwest;" parent="3dHDWGeiE3NFk8Ts6EiU-2" vertex="1">
          <mxGeometry y="80" width="210" height="8" as="geometry" />
        </mxCell>
        <mxCell id="3dHDWGeiE3NFk8Ts6EiU-5" value="+ Farm(owner: string)&#xa;+ AddAnimal(a: Animal)" style="text;strokeColor=none;fillColor=none;align=left;verticalAlign=top;spacingLeft=4;spacingRight=4;overflow=hidden;rotatable=0;points=[[0,0.5],[1,0.5]];portConstraint=eastwest;" parent="3dHDWGeiE3NFk8Ts6EiU-2" vertex="1">
          <mxGeometry y="88" width="210" height="52" as="geometry" />
        </mxCell>
        <mxCell id="3dHDWGeiE3NFk8Ts6EiU-6" value="Cow" style="swimlane;fontStyle=0;childLayout=stackLayout;horizontal=1;startSize=26;fillColor=none;horizontalStack=0;resizeParent=1;resizeParentMax=0;resizeLast=0;collapsible=1;marginBottom=0;" parent="1" vertex="1">
          <mxGeometry x="275" y="290" width="145" height="46" as="geometry" />
        </mxCell>
        <mxCell id="3dHDWGeiE3NFk8Ts6EiU-68" value="" style="endArrow=block;endFill=1;html=1;edgeStyle=orthogonalEdgeStyle;align=left;verticalAlign=top;exitX=1;exitY=0.5;exitDx=0;exitDy=0;" parent="3dHDWGeiE3NFk8Ts6EiU-6" source="3dHDWGeiE3NFk8Ts6EiU-6" edge="1">
          <mxGeometry x="-1" relative="1" as="geometry">
            <mxPoint x="70" y="36" as="sourcePoint" />
            <mxPoint x="165" y="-44" as="targetPoint" />
            <Array as="points">
              <mxPoint x="165" y="23" />
              <mxPoint x="165" y="-44" />
            </Array>
          </mxGeometry>
        </mxCell>
        <mxCell id="3dHDWGeiE3NFk8Ts6EiU-69" value="1" style="edgeLabel;resizable=0;html=1;align=left;verticalAlign=bottom;" parent="3dHDWGeiE3NFk8Ts6EiU-68" connectable="0" vertex="1">
          <mxGeometry x="-1" relative="1" as="geometry" />
        </mxCell>
        <mxCell id="YaTK0b8W3enIBcHLdgi--6" value="AnimalSounds = &quot;muuh&quot;;" style="text;html=1;align=center;verticalAlign=middle;resizable=0;points=[];autosize=1;" parent="3dHDWGeiE3NFk8Ts6EiU-6" vertex="1">
          <mxGeometry y="26" width="145" height="20" as="geometry" />
        </mxCell>
        <mxCell id="3dHDWGeiE3NFk8Ts6EiU-10" value="Pig" style="swimlane;fontStyle=0;childLayout=stackLayout;horizontal=1;startSize=26;fillColor=none;horizontalStack=0;resizeParent=1;resizeParentMax=0;resizeLast=0;collapsible=1;marginBottom=0;" parent="1" vertex="1">
          <mxGeometry x="280" y="370" width="140" height="52" as="geometry" />
        </mxCell>
        <mxCell id="3dHDWGeiE3NFk8Ts6EiU-14" value="Dog" style="swimlane;fontStyle=0;childLayout=stackLayout;horizontal=1;startSize=26;fillColor=none;horizontalStack=0;resizeParent=1;resizeParentMax=0;resizeLast=0;collapsible=1;marginBottom=0;" parent="1" vertex="1">
          <mxGeometry x="280" y="450" width="140" height="52" as="geometry" />
        </mxCell>
        <mxCell id="3dHDWGeiE3NFk8Ts6EiU-18" value="Cat" style="swimlane;fontStyle=0;childLayout=stackLayout;horizontal=1;startSize=26;fillColor=none;horizontalStack=0;resizeParent=1;resizeParentMax=0;resizeLast=0;collapsible=1;marginBottom=0;" parent="1" vertex="1">
          <mxGeometry x="460" y="450" width="140" height="52" as="geometry" />
        </mxCell>
        <mxCell id="3dHDWGeiE3NFk8Ts6EiU-22" value="Duck" style="swimlane;fontStyle=0;childLayout=stackLayout;horizontal=1;startSize=26;fillColor=none;horizontalStack=0;resizeParent=1;resizeParentMax=0;resizeLast=0;collapsible=1;marginBottom=0;" parent="1" vertex="1">
          <mxGeometry x="460" y="370" width="140" height="52" as="geometry" />
        </mxCell>
        <mxCell id="3dHDWGeiE3NFk8Ts6EiU-26" value="Horse" style="swimlane;fontStyle=0;childLayout=stackLayout;horizontal=1;startSize=26;fillColor=none;horizontalStack=0;resizeParent=1;resizeParentMax=0;resizeLast=0;collapsible=1;marginBottom=0;" parent="1" vertex="1">
          <mxGeometry x="460" y="290" width="140" height="46" as="geometry" />
        </mxCell>
        <mxCell id="YaTK0b8W3enIBcHLdgi--7" value="AnimalSounds= &quot;pruh&quot;" style="text;html=1;align=center;verticalAlign=middle;resizable=0;points=[];autosize=1;" parent="3dHDWGeiE3NFk8Ts6EiU-26" vertex="1">
          <mxGeometry y="26" width="140" height="20" as="geometry" />
        </mxCell>
        <mxCell id="3dHDWGeiE3NFk8Ts6EiU-48" value="Animal" style="swimlane;fontStyle=1;align=center;verticalAlign=top;childLayout=stackLayout;horizontal=1;startSize=26;horizontalStack=0;resizeParent=1;resizeParentMax=0;resizeLast=0;collapsible=1;marginBottom=0;" parent="1" vertex="1">
          <mxGeometry x="350" y="160" width="160" height="86" as="geometry" />
        </mxCell>
        <mxCell id="3dHDWGeiE3NFk8Ts6EiU-49" value="- animalName: String;" style="text;strokeColor=none;fillColor=none;align=left;verticalAlign=top;spacingLeft=4;spacingRight=4;overflow=hidden;rotatable=0;points=[[0,0.5],[1,0.5]];portConstraint=eastwest;" parent="3dHDWGeiE3NFk8Ts6EiU-48" vertex="1">
          <mxGeometry y="26" width="160" height="26" as="geometry" />
        </mxCell>
        <mxCell id="3dHDWGeiE3NFk8Ts6EiU-50" value="" style="line;strokeWidth=1;fillColor=none;align=left;verticalAlign=middle;spacingTop=-1;spacingLeft=3;spacingRight=3;rotatable=0;labelPosition=right;points=[];portConstraint=eastwest;" parent="3dHDWGeiE3NFk8Ts6EiU-48" vertex="1">
          <mxGeometry y="52" width="160" height="8" as="geometry" />
        </mxCell>
        <mxCell id="3dHDWGeiE3NFk8Ts6EiU-51" value="+ AnimalSounds;" style="text;strokeColor=none;fillColor=none;align=left;verticalAlign=top;spacingLeft=4;spacingRight=4;overflow=hidden;rotatable=0;points=[[0,0.5],[1,0.5]];portConstraint=eastwest;" parent="3dHDWGeiE3NFk8Ts6EiU-48" vertex="1">
          <mxGeometry y="60" width="160" height="26" as="geometry" />
        </mxCell>
        <mxCell id="3dHDWGeiE3NFk8Ts6EiU-53" value="" style="endArrow=open;html=1;endSize=12;startArrow=diamondThin;startSize=14;startFill=0;edgeStyle=orthogonalEdgeStyle;align=left;verticalAlign=bottom;exitX=0.5;exitY=0;exitDx=0;exitDy=0;" parent="1" source="3dHDWGeiE3NFk8Ts6EiU-2" edge="1">
          <mxGeometry x="-0.8315" y="45" relative="1" as="geometry">
            <mxPoint x="140" y="290" as="sourcePoint" />
            <mxPoint x="350" y="199" as="targetPoint" />
            <Array as="points">
              <mxPoint x="105" y="199" />
            </Array>
            <mxPoint as="offset" />
          </mxGeometry>
        </mxCell>
        <mxCell id="3dHDWGeiE3NFk8Ts6EiU-58" value="" style="endArrow=block;endFill=1;html=1;edgeStyle=orthogonalEdgeStyle;align=left;verticalAlign=top;exitX=0;exitY=0.25;exitDx=0;exitDy=0;" parent="1" source="3dHDWGeiE3NFk8Ts6EiU-22" edge="1">
          <mxGeometry x="-0.8789" y="67" relative="1" as="geometry">
            <mxPoint x="450" y="366" as="sourcePoint" />
            <mxPoint x="440" y="246" as="targetPoint" />
            <Array as="points">
              <mxPoint x="440" y="383" />
              <mxPoint x="440" y="246" />
            </Array>
            <mxPoint as="offset" />
          </mxGeometry>
        </mxCell>
        <mxCell id="3dHDWGeiE3NFk8Ts6EiU-59" value="1" style="edgeLabel;resizable=0;html=1;align=left;verticalAlign=bottom;" parent="3dHDWGeiE3NFk8Ts6EiU-58" connectable="0" vertex="1">
          <mxGeometry x="-1" relative="1" as="geometry" />
        </mxCell>
        <mxCell id="3dHDWGeiE3NFk8Ts6EiU-60" value="" style="endArrow=block;endFill=1;html=1;edgeStyle=orthogonalEdgeStyle;align=left;verticalAlign=top;exitX=0;exitY=0.25;exitDx=0;exitDy=0;" parent="1" source="3dHDWGeiE3NFk8Ts6EiU-18" edge="1">
          <mxGeometry x="-0.8284" y="64" relative="1" as="geometry">
            <mxPoint x="440" y="460" as="sourcePoint" />
            <mxPoint x="440" y="250" as="targetPoint" />
            <Array as="points">
              <mxPoint x="440" y="463" />
            </Array>
            <mxPoint x="34" y="57" as="offset" />
          </mxGeometry>
        </mxCell>
        <mxCell id="3dHDWGeiE3NFk8Ts6EiU-61" value="1" style="edgeLabel;resizable=0;html=1;align=left;verticalAlign=bottom;" parent="3dHDWGeiE3NFk8Ts6EiU-60" connectable="0" vertex="1">
          <mxGeometry x="-1" relative="1" as="geometry" />
        </mxCell>
        <mxCell id="3dHDWGeiE3NFk8Ts6EiU-62" value="" style="endArrow=block;endFill=1;html=1;edgeStyle=orthogonalEdgeStyle;align=left;verticalAlign=top;exitX=0;exitY=0.5;exitDx=0;exitDy=0;" parent="1" source="3dHDWGeiE3NFk8Ts6EiU-26" edge="1">
          <mxGeometry x="-0.2" y="-30" relative="1" as="geometry">
            <mxPoint x="450" y="310" as="sourcePoint" />
            <mxPoint x="440" y="246" as="targetPoint" />
            <Array as="points">
              <mxPoint x="440" y="313" />
            </Array>
            <mxPoint as="offset" />
          </mxGeometry>
        </mxCell>
        <mxCell id="3dHDWGeiE3NFk8Ts6EiU-63" value="1" style="edgeLabel;resizable=0;html=1;align=left;verticalAlign=bottom;" parent="3dHDWGeiE3NFk8Ts6EiU-62" connectable="0" vertex="1">
          <mxGeometry x="-1" relative="1" as="geometry" />
        </mxCell>
        <mxCell id="3dHDWGeiE3NFk8Ts6EiU-64" value="" style="endArrow=block;endFill=1;html=1;edgeStyle=orthogonalEdgeStyle;align=left;verticalAlign=top;exitX=1;exitY=0.25;exitDx=0;exitDy=0;" parent="1" source="3dHDWGeiE3NFk8Ts6EiU-14" target="3dHDWGeiE3NFk8Ts6EiU-51" edge="1">
          <mxGeometry x="-1" y="-35" relative="1" as="geometry">
            <mxPoint x="429.66" y="470" as="sourcePoint" />
            <mxPoint x="440" y="250" as="targetPoint" />
            <Array as="points">
              <mxPoint x="440" y="463" />
            </Array>
            <mxPoint x="-5" y="18" as="offset" />
          </mxGeometry>
        </mxCell>
        <mxCell id="3dHDWGeiE3NFk8Ts6EiU-65" value="1" style="edgeLabel;resizable=0;html=1;align=left;verticalAlign=bottom;" parent="3dHDWGeiE3NFk8Ts6EiU-64" connectable="0" vertex="1">
          <mxGeometry x="-1" relative="1" as="geometry" />
        </mxCell>
        <mxCell id="3dHDWGeiE3NFk8Ts6EiU-66" value="" style="endArrow=block;endFill=1;html=1;edgeStyle=orthogonalEdgeStyle;align=left;verticalAlign=top;exitX=1;exitY=0.25;exitDx=0;exitDy=0;" parent="1" source="3dHDWGeiE3NFk8Ts6EiU-10" edge="1">
          <mxGeometry x="-1" y="-30" relative="1" as="geometry">
            <mxPoint x="429.66" y="402" as="sourcePoint" />
            <mxPoint x="440" y="250" as="targetPoint" />
            <Array as="points">
              <mxPoint x="440" y="383" />
            </Array>
            <mxPoint as="offset" />
          </mxGeometry>
        </mxCell>
        <mxCell id="3dHDWGeiE3NFk8Ts6EiU-67" value="1" style="edgeLabel;resizable=0;html=1;align=left;verticalAlign=bottom;" parent="3dHDWGeiE3NFk8Ts6EiU-66" connectable="0" vertex="1">
          <mxGeometry x="-1" relative="1" as="geometry" />
        </mxCell>
        <mxCell id="YaTK0b8W3enIBcHLdgi--8" value="AnimalSounds = &quot;Øff&quot;;" style="text;html=1;align=center;verticalAlign=middle;resizable=0;points=[];autosize=1;" parent="1" vertex="1">
          <mxGeometry x="285" y="400" width="130" height="20" as="geometry" />
        </mxCell>
        <mxCell id="YaTK0b8W3enIBcHLdgi--9" value="AnimalSounds = &quot;Rap&quot;;" style="text;html=1;align=center;verticalAlign=middle;resizable=0;points=[];autosize=1;" parent="1" vertex="1">
          <mxGeometry x="460" y="400" width="140" height="20" as="geometry" />
        </mxCell>
        <mxCell id="YaTK0b8W3enIBcHLdgi--10" value="AnimalSounds = &quot;Woof&quot;;" style="text;html=1;align=center;verticalAlign=middle;resizable=0;points=[];autosize=1;" parent="1" vertex="1">
          <mxGeometry x="275" y="480" width="150" height="20" as="geometry" />
        </mxCell>
        <mxCell id="YaTK0b8W3enIBcHLdgi--11" value="AnimalSounds = &quot;Meow&quot;;" style="text;html=1;align=center;verticalAlign=middle;resizable=0;points=[];autosize=1;" parent="1" vertex="1">
          <mxGeometry x="455" y="480" width="150" height="20" as="geometry" />
        </mxCell>
      </root>
    </mxGraphModel>
  </diagram>
</mxfile>
